<svg viewBox="0 0 400 270" xmlns="http://www.w3.org/2000/svg" fill-rule="evenodd" clip-rule="evenodd" stroke-linejoin="round" stroke-miterlimit="2"><path d="M311.97.126h-56.926l28.465 49.303h-.004l-59.566 103.17 28.463 49.3h62.209l28.463-49.3h-62.208l31.104-53.874 1.321 2.288 29.783 51.586 28.463 49.3 28.463-49.3-59.567-103.173.007-.012h-.014L311.97.126z" fill="#1288e3"/><clipPath id="a"><path d="M311.97.126h-56.926l28.465 49.303h-.004l-59.566 103.17 28.463 49.3h62.209l28.463-49.3h-62.208l31.104-53.874 1.321 2.288 29.783 51.586 28.463 49.3 28.463-49.3-59.567-103.173.007-.012h-.014L311.97.126z"/></clipPath><g clip-path="url(#a)"><path d="M283.233 149.985l-31.037-50.197 30.194-52.297 30.486 51.15-29.643 51.344z" fill="url(#_Linear2)"/><path d="M283.788 152.6l27.953 51.977h60.388L343.074 152.6h-59.286z" fill="url(#_Linear3)"/><path d="M313.839 101.336l-32.534-55.719-57.365 106.982 57.63.058 32.269-51.321z" fill="url(#_Linear4)"/></g><path d="M311.97.126h-56.926l28.465 49.303h-.004l-59.566 103.17 28.463 49.3h62.209l28.463-49.3h-62.208l31.104-53.874 1.321 2.288 29.783 51.586 28.463 49.3 28.463-49.3-59.567-103.173.007-.012h-.014L311.97.126z" fill="none"/><path d="M0 201.899h232.987L174.74 101.013 116.493.126 58.247 101.013 0 201.899zm85.391-49.301h62.206l-15.551-26.936-15.552-26.936-15.551 26.937-15.552 26.935z" fill="#1288e3"/><clipPath id="b"><path d="M0 201.899h232.987L174.74 101.013 116.493.126 58.247 101.013 0 201.899zm85.391-49.301h62.206l-15.551-26.936-15.552-26.936-15.551 26.937-15.552 26.935z"/></clipPath><g clip-path="url(#b)"><path d="M144.677 152.599l-27.953 51.977H56.336l29.055-51.978 59.286.001z" fill="url(#_Linear6)"/><path d="M236.782 102.082l-120.288-3.356 31.103 53.872 60.398-.029 28.787-50.487z" fill="url(#_Linear7)"/><path d="M86.851 149.251L55.815 99.854 86.008 48.39l30.486 50.336-29.643 50.525z" fill="url(#_Linear8)"/></g><path d="M0 201.899h232.987L174.74 101.013 116.493.126 58.247 101.013 0 201.899zm85.391-49.301h62.206l-15.551-26.936-15.552-26.936-15.551 26.937-15.552 26.935z" fill="none"/><path d="M17.262 266.381H3.392v-30.724H0v33.758h15.51l1.752-3.034zm116.935-31.182c-5.402 0-7.692 4.221-8.661 8.802l-.005.028a27.491 27.491 0 00-.324 1.874l-.004.025-.04.308v.002l-.038.298-.005.045-.03.263-.008.075c-.065.61-.114 1.212-.15 1.796l-.001.015-.014.239-.005.104-.012.231-.001.016-.009.197-.005.096-.009.231-.002.057-.009.266v.019l-.009.28v.02l-.007.255v.056l-.005.215-.001.089-.003.175-.002.123-.001.137-.002.153-.001.1-.001.182V252.277l-.001.234v.433l-.001.154v.214l.001.111v.111l.001.145v.086l.001.24.002.217.001.029.003.253v.002l.005.259v.036l.005.232.002.07.006.202.003.107.006.173.001.03c.006.178.014.36.023.544l.011.225.007.128.014.24.02.304c.028.398.062.806.104 1.22l.005.052.028.255.008.075c.023.195.047.392.074.588l.011.079c.084.62.19 1.247.323 1.871l.005.026.066.3.006.026c.169.738.376 1.467.631 2.169l.018.05.097.257.021.056c.034.086.068.172.104.258l.019.046c.038.09.076.18.116.268l.002.004c.217.489.461.96.736 1.404l.003.004c.05.083.102.162.155.244l.021.03c.048.074.098.147.149.219l.04.057.145.197.045.059.165.21.003.002c.321.391.674.752 1.062 1.073l.027.024c.065.054.131.105.198.156l.061.047c.064.048.13.095.196.142l.063.043a7.6 7.6 0 00.21.138l.056.036c.071.044.143.087.216.128l.068.038c1.094.612 2.411.967 3.997.967 1.061 0 2.001-.164 2.835-.459l.008-.002a7.39 7.39 0 00.845-.365l.045-.023c.077-.039.152-.081.227-.123l.06-.034c.074-.043.147-.086.219-.132l.057-.036c.069-.044.138-.09.205-.137l.07-.048c.063-.045.126-.09.188-.139l.07-.051c.062-.05.125-.099.185-.149l.043-.036c.293-.248.566-.516.821-.804l.035-.039c.058-.067.114-.134.17-.202l.033-.039a7.39 7.39 0 00.153-.197l.052-.066c.048-.064.096-.129.142-.195l.042-.059c.05-.071.1-.144.148-.218l.022-.032c.052-.078.103-.16.153-.24l.009-.016c.265-.431.502-.886.715-1.36l.03-.066.099-.229.033-.08.099-.247.022-.056c.032-.083.065-.167.096-.252l.026-.072.088-.247.023-.066c.131-.388.249-.783.356-1.182l.012-.044.061-.239.026-.103.06-.249.017-.074.059-.262.017-.084.052-.244.018-.09.051-.261.003-.019c.099-.526.18-1.051.247-1.571l.007-.055.03-.24.013-.109.026-.234.01-.096.023-.215.013-.133.018-.193.003-.031.023-.267.004-.042.023-.303v-.003l.021-.301.003-.036.016-.263.004-.072.012-.222.005-.107.009-.181.003-.058.008-.205.001-.02.006-.173.004-.104.003-.087.005-.186.006-.23.001-.034.006-.258v-.001l.004-.252.001-.029.002-.215.001-.06.001-.176.001-.086.001-.142v-.111l.001-.109V251.695l-.001-.113v-.113l-.001-.147-.001-.086-.001-.182-.001-.059-.002-.22-.001-.028-.004-.256v-.003l-.006-.259-.001-.037-.006-.232-.006-.218-.002-.056-.004-.108-.006-.172-.003-.063-.008-.19-.003-.067c-.008-.18-.017-.364-.028-.549l-.016-.27-.002-.03-.021-.304-.001-.007-.023-.299-.004-.046-.023-.263-.001-.013-.02-.207-.015-.151-.02-.195-.01-.1-.028-.248-.01-.081-.03-.243-.012-.089a27.279 27.279 0 00-.234-1.492l-.014-.076-.05-.253-.015-.077-.062-.292-.002-.011-.07-.311-.004-.02-.069-.285-.023-.087-.064-.249-.009-.032a16.946 16.946 0 00-.474-1.503l-.018-.052-.096-.25-.024-.061-.106-.261-.011-.024a11.864 11.864 0 00-.852-1.662l-.014-.022a7.592 7.592 0 00-.155-.241l-.016-.023a6.998 6.998 0 00-.163-.236l-.015-.023c-.057-.077-.113-.154-.171-.23l-.014-.019a9.464 9.464 0 00-.181-.227l-.01-.012a7.902 7.902 0 00-1.06-1.065l-.015-.012a5.72 5.72 0 00-.215-.17l-.036-.027a6.858 6.858 0 00-.221-.159l-.031-.022a7.488 7.488 0 00-.238-.156l-.015-.01a12.57 12.57 0 00-.258-.155h-.002c-1.098-.623-2.422-.985-4.017-.985zm170.088 0c-9.011 0-9.365 11.743-9.365 17.312 0 4.354-.253 17.363 9.365 17.363 9.516 0 9.365-13.111 9.365-17.363 0-4.455.151-17.312-9.365-17.312zm0 3.188c5.973 0 5.821 7.746 5.821 14.124 0 5.872.051 14.174-5.821 14.174-4.759 0-5.822-5.062-5.822-14.174 0-4.961-.152-14.124 5.822-14.124zM53.76 258.99l2.475 10.425h2.583l.982-.001-8.621-33.757h-4.051l-8.616 33.758h3.56l2.475-10.425h9.213zm-.81-3.037h-7.593l3.746-15.793h.101l3.746 15.793zm35.84 10.428v-13.82h3.695c3.544 0 6.024 1.671 6.024 6.682 0 4.91-2.075 7.138-5.113 7.138H88.79zm0-16.857v-10.832h1.974c4.1 0 6.176 1.315 6.176 5.467 0 3.543-1.62 5.365-5.113 5.365H88.79zm5.01 19.891c4.543-.11 8.253-3.212 8.253-10.121 0-4.049-1.368-6.935-5.164-8.606 2.48-1.366 3.594-3.746 3.594-6.529 0-5.357-3.712-8.435-7.368-8.502h-10.45v.001l1.751 3.034h.982v27.689h-2.733l1.751 3.034H93.8zm49.705-20.329c-.008-.18-.017-.364-.028-.549l.028.549zm-9.308-10.699c5.974 0 5.822 7.746 5.822 14.124 0 5.872.05 14.174-5.822 14.174-4.758 0-5.821-5.062-5.821-14.174 0-4.961-.152-14.124 5.821-14.124zm38.928.305h4.151c3.442 0 5.568 1.518 5.568 5.922 0 4.556-1.822 6.732-4.758 6.732h-4.961v-12.654zm0 30.723v-15.031h3.796l7.273 15.031 3.74-.002-7.368-15.282c4.151-1.417 5.821-5.366 5.821-9.517 0-5.995-4.093-8.884-7.411-8.957h-9.243v33.758h3.392zm50.722-10.425l2.476 10.425 3.566-.01-8.623-33.748h-4.05l-8.622 33.756 3.565.002 2.475-10.425h9.213zm-.81-3.037h-7.593l3.746-15.793h.102l3.745 15.793zm40.497 13.462v-30.723h6.43l1.743-3.019v-.016H251.82l.163.283 1.589 2.752h6.571v30.723h3.391zm79.679-30.723h4.15c3.442 0 5.569 1.518 5.569 5.922 0 4.556-1.823 6.732-4.758 6.732h-4.961v-12.654zm0 30.723v-15.031h3.796l7.271 15.029 2.812.002h.937l-7.375-15.284c4.15-1.417 5.821-5.366 5.821-9.517 0-5.995-4.093-8.884-7.411-8.957h-9.243v33.758h3.392zm46.115-17.258l-7.009-16.5h-1.916l-1.77.001 8.974 20.447v13.31h3.392v-13.31l8.997-20.447-3.658-.001-7.01 16.5z" fill="#1288e3" fill-rule="nonzero"/><defs><linearGradient id="_Linear2" x1="0" y1="0" x2="1" y2="0" gradientUnits="userSpaceOnUse" gradientTransform="matrix(-17.6834 7.61424 -7.61424 -17.6834 291.378 94.93)"><stop offset="0" stop-color="#0761a6"/><stop offset=".42" stop-color="#0c74c4"/><stop offset="1" stop-color="#1288e3"/></linearGradient><linearGradient id="_Linear3" x1="0" y1="0" x2="1" y2="0" gradientUnits="userSpaceOnUse" gradientTransform="rotate(142.395 137.645 143.74) scale(16.27147)"><stop offset="0" stop-color="#0761a6"/><stop offset=".42" stop-color="#0c74c4"/><stop offset="1" stop-color="#1288e3"/></linearGradient><linearGradient id="_Linear4" x1="0" y1="0" x2="1" y2="0" gradientUnits="userSpaceOnUse" gradientTransform="scale(81.0685) rotate(-49.273 3.242 -2.46)"><stop offset="0" stop-color="#0761a6"/><stop offset=".35" stop-color="#1288e3"/><stop offset=".72" stop-color="#1288e3"/><stop offset="1" stop-color="#0761a6"/></linearGradient><linearGradient id="_Linear6" x1="0" y1="0" x2="1" y2="0" gradientUnits="userSpaceOnUse" gradientTransform="rotate(29.401 -285.488 263.263) scale(18.44642)"><stop offset="0" stop-color="#0761a6"/><stop offset=".42" stop-color="#0c74c4"/><stop offset="1" stop-color="#1288e3"/></linearGradient><linearGradient id="_Linear7" x1="0" y1="0" x2="1" y2="0" gradientUnits="userSpaceOnUse" gradientTransform="scale(20.6903) rotate(-88.273 7.648 -1.105)"><stop offset="0" stop-color="#0761a6"/><stop offset=".42" stop-color="#0c74c4"/><stop offset="1" stop-color="#1288e3"/></linearGradient><linearGradient id="_Linear8" x1="0" y1="0" x2="1" y2="0" gradientUnits="userSpaceOnUse" gradientTransform="rotate(152.601 36.593 58.556) scale(22.2428)"><stop offset="0" stop-color="#0761a6"/><stop offset=".42" stop-color="#0c74c4"/><stop offset="1" stop-color="#1288e3"/></linearGradient></defs></svg>